<svg xmlns="http://www.w3.org/2000/svg"
 viewBox="-1.35 -24.732687 29.7 33.876915"
>
<polyline
 fill="none" stroke="green" stroke-width="0.25%"
 points="
  0.000000,  0.000000
  1.000000,  0.000000
  1.500000,  0.866025
  2.000000,  0.000000
  3.000000,  0.000000
  3.500000,  0.866025
  3.000000,  1.732051
  4.000000,  1.732051
  4.500000,  2.598076
  5.000000,  1.732051
  6.000000,  1.732051
  5.500000,  0.866026
  6.000000,  0.000000
  7.000000,  0.000000
  7.500000,  0.866026
  8.000000,  0.000000
  9.000000,  0.000000
  9.500000,  0.866026
  9.000000,  1.732051
 10.000000,  1.732051
 10.500000,  2.598076
 10.000000,  3.464102
  9.000000,  3.464102
  9.500000,  4.330127
  9.000000,  5.196153
 10.000000,  5.196153
 10.500000,  6.062178
 11.000000,  5.196153
 12.000000,  5.196153
 12.500000,  6.062178
 12.000000,  6.928204
 13.000000,  6.928204
 13.500000,  7.794229
 14.000000,  6.928204
 15.000000,  6.928204
 14.500000,  6.062178
 15.000000,  5.196153
 16.000000,  5.196153
 16.500000,  6.062178
 17.000000,  5.196153
 18.000000,  5.196153
 17.500000,  4.330127
 18.000000,  3.464102
 17.000000,  3.464102
 16.500000,  2.598076
 17.000000,  1.732051
 18.000000,  1.732051
 17.500000,  0.866026
 18.000000,  0.000000
 19.000000,  0.000000
 19.500000,  0.866026
 20.000000,  0.000000
 21.000000,  0.000000
 21.500000,  0.866026
 21.000000,  1.732051
 22.000000,  1.732051
 22.500000,  2.598076
 23.000000,  1.732051
 24.000000,  1.732051
 23.500000,  0.866026
 24.000000,  0.000000
 25.000000,  0.000000
 25.500000,  0.866026
 26.000000,  0.000000
 27.000000,  0.000000
 26.500000, -0.866025
 27.000000, -1.732051
 26.000000, -1.732051
 25.500000, -2.598076
 26.000000, -3.464102
 27.000000, -3.464102
 26.500000, -4.330127
 27.000000, -5.196152
 26.000000, -5.196152
 25.500000, -6.062178
 25.000000, -5.196152
 24.000000, -5.196152
 23.500000, -6.062178
 24.000000, -6.928203
 23.000000, -6.928203
 22.500000, -7.794229
 23.000000, -8.660254
 24.000000, -8.660254
 23.500000, -9.526278
 24.000000,-10.392303
 25.000000,-10.392303
 25.500000, -9.526278
 26.000000,-10.392303
 27.000000,-10.392303
 26.500000,-11.258328
 27.000000,-12.124353
 26.000000,-12.124353
 25.500000,-12.990378
 26.000000,-13.856403
 27.000000,-13.856403
 26.500000,-14.722428
 27.000000,-15.588453
 26.000000,-15.588453
 25.500000,-16.454480
 25.000000,-15.588453
 24.000000,-15.588453
 23.500000,-16.454480
 24.000000,-17.320505
 23.000000,-17.320505
 22.500000,-18.186531
 22.000000,-17.320505
 21.000000,-17.320505
 21.500000,-16.454480
 21.000000,-15.588453
 20.000000,-15.588453
 19.500000,-16.454480
 19.000000,-15.588453
 18.000000,-15.588453
 17.500000,-16.454480
 18.000000,-17.320505
 17.000000,-17.320505
 16.500000,-18.186531
 17.000000,-19.052557
 18.000000,-19.052557
 17.500000,-19.918583
 18.000000,-20.784609
 17.000000,-20.784609
 16.500000,-21.650635
 16.000000,-20.784609
 15.000000,-20.784609
 14.500000,-21.650635
 15.000000,-22.516660
 14.000000,-22.516660
 13.500000,-23.382687
 13.000000,-22.516660
 12.000000,-22.516660
 12.500000,-21.650635
 12.000000,-20.784609
 11.000000,-20.784609
 10.500000,-21.650635
 10.000000,-20.784609
  9.000000,-20.784609
  9.500000,-19.918583
  9.000000,-19.052557
 10.000000,-19.052557
 10.500000,-18.186531
 10.000000,-17.320505
  9.000000,-17.320505
  9.500000,-16.454480
  9.000000,-15.588453
  8.000000,-15.588453
  7.500000,-16.454480
  7.000000,-15.588453
  6.000000,-15.588453
  5.500000,-16.454480
  6.000000,-17.320505
  5.000000,-17.320505
  4.500000,-18.186531
  4.000000,-17.320505
  3.000000,-17.320505
  3.500000,-16.454480
  3.000000,-15.588453
  2.000000,-15.588453
  1.500000,-16.454480
  1.000000,-15.588453
  0.000000,-15.588453
  0.500000,-14.722427
  0.000000,-13.856401
  1.000000,-13.856401
  1.500000,-12.990376
  1.000000,-12.124350
  0.000000,-12.124350
  0.500000,-11.258324
  0.000000,-10.392298
  1.000000,-10.392298
  1.500000, -9.526272
  2.000000,-10.392297
  3.000000,-10.392297
  3.500000, -9.526272
  3.000000, -8.660246
  4.000000, -8.660246
  4.500000, -7.794220
  4.000000, -6.928195
  3.000000, -6.928195
  3.500000, -6.062170
  3.000000, -5.196144
  2.000000, -5.196144
  1.500000, -6.062170
  1.000000, -5.196144
  0.000000, -5.196144
  0.500000, -4.330119
  0.000000, -3.464093
  1.000000, -3.464093
  1.500000, -2.598068
  1.000000, -1.732043
  0.000000, -1.732042
  0.500000, -0.866017
  0.000000,  0.000008
 "
/>
</svg>
