<svg xmlns="http://www.w3.org/2000/svg"
 viewBox="-62.523777 -120.31808 126.04755 126.047516"
>
<polyline
 fill="none" stroke="green" stroke-width="0.25%"
 points="
  0.000000,  0.000000
  1.000000,  0.000000
  1.999848, -0.017452
  2.999238, -0.052352
  3.997868, -0.104688
  4.995432, -0.174444
  5.991627, -0.261600
  6.986149, -0.366128
  7.978695, -0.487998
  8.968963, -0.627171
  9.956651, -0.783605
 10.941459, -0.957254
 11.923086, -1.148063
 12.901234, -1.355974
 13.875604, -1.580925
 14.845900, -1.822847
 15.811826, -2.081666
 16.773087, -2.357304
 17.729391, -2.649675
 18.680449, -2.958692
 19.625967, -3.284260
 20.565660, -3.626280
 21.499240, -3.984648
 22.426424, -4.359255
 23.346930, -4.749986
 24.260475, -5.156723
 25.166782, -5.579341
 26.065577, -6.017713
 26.956583, -6.471703
 27.839530, -6.941174
 28.714151, -7.425984
 29.580177, -7.925984
 30.437346, -8.441022
 31.285393, -8.970942
 32.124060, -9.515580
 32.953100,-10.074773
 33.772250,-10.648350
 34.581270,-11.236136
 35.379906,-11.837951
 36.167915,-12.453612
 36.945060,-13.082932
 37.711105,-13.725720
 38.465816,-14.381780
 39.208960,-15.050910
 39.940315,-15.732908
 40.659657,-16.427567
 41.366764,-17.134674
 42.061424,-17.854013
 42.743423,-18.585367
 43.412556,-19.328512
 44.068615,-20.083221
 44.711403,-20.849266
 45.340725,-21.626411
 45.956387,-22.414423
 46.558200,-23.213058
 47.145985,-24.022076
 47.719563,-24.841228
 48.278755,-25.670265
 48.823395,-26.508936
 49.353313,-27.356983
 49.868350,-28.214151
 50.368350,-29.080177
 50.853160,-29.954798
 51.322630,-30.837746
 51.776623,-31.728752
 52.214993,-32.627544
 52.637610,-33.533850
 53.044350,-34.447395
 53.435080,-35.367900
 53.809690,-36.295086
 54.168056,-37.228670
 54.510080,-38.168360
 54.835648,-39.113880
 55.144665,-40.064938
 55.437040,-41.021244
 55.712677,-41.982506
 55.971497,-42.948433
 56.213417,-43.918728
 56.438370,-44.893097
 56.646282,-45.871246
 56.837090,-46.852875
 57.010740,-47.837680
 57.167170,-48.825370
 57.306343,-49.815640
 57.428210,-50.808186
 57.532738,-51.802708
 57.619892,-52.798900
 57.689648,-53.796463
 57.741985,-54.795094
 57.776886,-55.794483
 57.794340,-56.794330
 57.794340,-57.794330
 57.776886,-58.794178
 57.741985,-59.793568
 57.689648,-60.792200
 57.619892,-61.789760
 57.532738,-62.785954
 57.428207,-63.780476
 57.306340,-64.773026
 57.167168,-65.763290
 57.010735,-66.750980
 56.837086,-67.735790
 56.646280,-68.717415
 56.438366,-69.695564
 56.213413,-70.669940
 55.971493,-71.640236
 55.712673,-72.606160
 55.437035,-73.567420
 55.144660,-74.523730
 54.835644,-75.474785
 54.510075,-76.420300
 54.168053,-77.359990
 53.809685,-78.293570
 53.435078,-79.220760
 53.044346,-80.141260
 52.637608,-81.054800
 52.214990,-81.961110
 51.776620,-82.859910
 51.322628,-83.750916
 50.853157,-84.633865
 50.368347,-85.508484
 49.868347,-86.374510
 49.353310,-87.231680
 48.823390,-88.079730
 48.278750,-88.918396
 47.719560,-89.747440
 47.145980,-90.566590
 46.558197,-91.375600
 45.956383,-92.174240
 45.340720,-92.962250
 44.711400,-93.739395
 44.068610,-94.505440
 43.412550,-95.260150
 42.743420,-96.003290
 42.061420,-96.734640
 41.366760,-97.453980
 40.659653,-98.161090
 39.940310,-98.855740
 39.208958,-99.537740
 38.465813,-100.206870
 37.711100,-100.862930
 36.945057,-101.505714
 36.167910,-102.135030
 35.379900,-102.750694
 34.581270,-103.352510
 33.772250,-103.940290
 32.953100,-104.513870
 32.124060,-105.073070
 31.285390,-105.617710
 30.437344,-106.147630
 29.580175,-106.662670
 28.714150,-107.162670
 27.839529,-107.647480
 26.956581,-108.116950
 26.065575,-108.570940
 25.166780,-109.009310
 24.260473,-109.431920
 23.346928,-109.838660
 22.426422,-110.229390
 21.499239,-110.604000
 20.565659,-110.962364
 19.625965,-111.304380
 18.680447,-111.629950
 17.729390,-111.938965
 16.773085,-112.231340
 15.811823,-112.506970
 14.845897,-112.765790
 13.875601,-113.007710
 12.901231,-113.232666
 11.923083,-113.440575
 10.941456,-113.631386
  9.956648,-113.805030
  8.968960,-113.961464
  7.978692,-114.100640
  6.986146,-114.222510
  5.991623,-114.327040
  4.995429,-114.414200
  3.997864,-114.483955
  2.999235,-114.536290
  1.999844,-114.571190
  0.999996,-114.588646
 -0.000004,-114.588646
 -0.999851,-114.571190
 -1.999242,-114.536290
 -2.997872,-114.483955
 -3.995436,-114.414200
 -4.991631,-114.327040
 -5.986153,-114.222510
 -6.978699,-114.100640
 -7.968967,-113.961464
 -8.956656,-113.805030
 -9.941463,-113.631386
-10.923091,-113.440575
-11.901238,-113.232666
-12.875608,-113.007710
-13.845904,-112.765790
-14.811830,-112.506970
-15.773092,-112.231340
-16.729397,-111.938965
-17.680454,-111.629950
-18.625973,-111.304380
-19.565666,-110.962364
-20.499247,-110.604000
-21.426430,-110.229390
-22.346935,-109.838660
-23.260480,-109.431920
-24.166788,-109.009310
-25.065582,-108.570940
-25.956589,-108.116950
-26.839537,-107.647480
-27.714157,-107.162670
-28.580183,-106.662670
-29.437351,-106.147630
-30.285398,-105.617710
-31.124070,-105.073070
-31.953106,-104.513870
-32.772260,-103.940290
-33.581276,-103.352510
-34.379913,-102.750694
-35.167923,-102.135030
-35.945070,-101.505714
-36.711113,-100.862930
-37.465824,-100.206870
-38.208970,-99.537740
-38.940323,-98.855740
-39.659664,-98.161090
-40.366770,-97.453980
-41.061430,-96.734640
-41.743430,-96.003290
-42.412563,-95.260150
-43.068623,-94.505440
-43.711410,-93.739395
-44.340733,-92.962250
-44.956394,-92.174240
-45.558210,-91.375600
-46.145992,-90.566590
-46.719570,-89.747440
-47.278763,-88.918396
-47.823402,-88.079730
-48.353320,-87.231680
-48.868360,-86.374510
-49.368360,-85.508484
-49.853170,-84.633865
-50.322640,-83.750916
-50.776630,-82.859910
-51.215000,-81.961110
-51.637620,-81.054800
-52.044357,-80.141260
-52.435090,-79.220760
-52.809696,-78.293570
-53.168064,-77.359990
-53.510086,-76.420300
-53.835655,-75.474785
-54.144672,-74.523730
-54.437046,-73.567420
-54.712685,-72.606155
-54.971504,-71.640230
-55.213425,-70.669930
-55.438377,-69.695560
-55.646290,-68.717410
-55.837097,-67.735780
-56.010746,-66.750970
-56.167180,-65.763280
-56.306350,-64.773020
-56.428220,-63.780470
-56.532745,-62.785950
-56.619900,-61.789757
-56.689655,-60.792194
-56.741993,-59.793564
-56.776894,-58.794174
-56.794346,-57.794327
-56.794346,-56.794327
-56.776894,-55.794480
-56.741993,-54.795090
-56.689655,-53.796460
-56.619900,-52.798897
-56.532745,-51.802704
-56.428220,-50.808180
-56.306350,-49.815636
-56.167180,-48.825367
-56.010746,-47.837677
-55.837097,-46.852870
-55.646290,-45.871243
-55.438377,-44.893093
-55.213425,-43.918724
-54.971504,-42.948430
-54.712685,-41.982502
-54.437046,-41.021240
-54.144676,-40.064934
-53.835660,-39.113876
-53.510090,-38.168358
-53.168068,-37.228664
-52.809700,-36.295082
-52.435093,-35.367897
-52.044360,-34.447390
-51.637623,-33.533848
-51.215004,-32.627540
-50.776634,-31.728746
-50.322643,-30.837740
-49.853172,-29.954792
-49.368362,-29.080172
-48.868362,-28.214146
-48.353325,-27.356977
-47.823406,-26.508930
-47.278767,-25.670260
-46.719574,-24.841223
-46.145996,-24.022070
-45.558212,-23.213053
-44.956398,-22.414417
-44.340736,-21.626406
-43.711414,-20.849260
-43.068626,-20.083216
-42.412567,-19.328506
-41.743435,-18.585361
-41.061436,-17.854008
-40.366776,-17.134668
-39.659668,-16.427560
-38.940327,-15.732903
-38.208973,-15.050904
-37.465828,-14.381774
-36.711117,-13.725715
-35.945072,-13.082927
-35.167927,-12.453606
-34.379917,-11.837944
-33.581280,-11.236129
-32.772263,-10.648343
-31.953110,-10.074766
-31.124073, -9.515574
-30.285402, -8.970935
-29.437355, -8.441015
-28.580189, -7.925977
-27.714163, -7.425977
-26.839542, -6.941168
-25.956594, -6.471696
-25.065588, -6.017706
-24.166794, -5.579335
-23.260487, -5.156716
-22.346941, -4.749980
-21.426435, -4.359249
-20.499252, -3.984642
-19.565672, -3.626274
-18.625978, -3.284254
-17.680460, -2.958686
-16.729403, -2.649669
-15.773098, -2.357297
-14.811836, -2.081660
-13.845910, -1.822840
-12.875614, -1.580919
-11.901244, -1.355968
-10.923097, -1.148056
 -9.941469, -0.957247
 -8.956661, -0.783598
 -7.968973, -0.627164
 -6.978704, -0.487991
 -5.986158, -0.366121
 -4.991636, -0.261593
 -3.995442, -0.174437
 -2.997878, -0.104680
 -1.999248, -0.052344
 -0.999857, -0.017445
 -0.000009,  0.000008
  0.999990,  0.000008
 "
/>
</svg>
